<?xml version="1.0" encoding="UTF-8"?>
<!--Generator: Apple Native CoreSVG 341-->
<!DOCTYPE svg
PUBLIC "-//W3C//DTD SVG 1.1//EN"
       "http://www.w3.org/Graphics/SVG/1.1/DTD/svg11.dtd">
<svg version="1.1" xmlns="http://www.w3.org/2000/svg" xmlns:xlink="http://www.w3.org/1999/xlink" viewBox="0 0 29.7461 20.6738">
 <g>
  <rect height="20.6738" opacity="0" width="29.7461" x="0" y="0"/>
  <path d="M26.2109 4.38477L26.2109 4.61914L24.6387 4.61914L24.6387 4.46289C24.6387 3.44727 24.082 2.92969 23.1152 2.92969L6.26953 2.92969C5.29297 2.92969 4.74609 3.44727 4.74609 4.46289L4.74609 16.2305C4.74609 17.2461 5.29297 17.7637 6.26953 17.7637L18.4704 17.7637C18.4812 18.3574 18.6462 18.8925 18.9325 19.3359L6.24023 19.3359C4.20898 19.3359 3.17383 18.3301 3.17383 16.3086L3.17383 4.38477C3.17383 2.36328 4.20898 1.35742 6.24023 1.35742L23.1445 1.35742C25.1855 1.35742 26.2109 2.37305 26.2109 4.38477ZM18.4668 17.0117L10.918 17.0117C10.6543 17.0117 10.459 16.8359 10.459 16.5625C10.459 16.2891 10.6543 16.1035 10.918 16.1035L18.4668 16.1035Z" fill="white" fill-opacity="0.85"/>
  <path d="M19.7949 17.6855C19.7949 18.6719 20.4785 19.3359 21.5234 19.3359L26.1816 19.3359C27.2266 19.3359 27.9199 18.6719 27.9199 17.6855L27.9199 7.58789C27.9199 6.62109 27.2266 5.94727 26.1816 5.94727L21.5234 5.94727C20.4785 5.94727 19.7949 6.62109 19.7949 7.58789ZM21.084 16.9141L21.084 8.36914L26.6309 8.36914L26.6309 16.9141ZM23.8672 18.6914C23.5547 18.6914 23.3008 18.4277 23.3008 18.125C23.3008 17.8125 23.5547 17.5586 23.8672 17.5586C24.1797 17.5586 24.4238 17.8125 24.4238 18.125C24.4238 18.4277 24.1797 18.6914 23.8672 18.6914ZM23.8672 7.55859C23.6426 7.55859 23.4863 7.39258 23.4863 7.16797C23.4863 6.95312 23.6426 6.79688 23.8672 6.79688C24.082 6.79688 24.2383 6.95312 24.2383 7.16797C24.2383 7.39258 24.082 7.55859 23.8672 7.55859Z" fill="white" fill-opacity="0.85"/>
 </g>
</svg>
