<svg width="32" height="32" viewBox="0 0 32 32" fill="none" xmlns="http://www.w3.org/2000/svg">
<rect width="32" height="32" fill="#09090B"/>
<path d="M8 23V18C8 17.7348 7.89457 17.4805 7.70703 17.293C7.51949 17.1054 7.26522 17 7 17C6.44772 17 6 16.5523 6 16C6 15.4477 6.44772 15 7 15C7.26522 15 7.51949 14.8946 7.70703 14.707C7.89457 14.5195 8 14.2652 8 14V9C8 8.20435 8.3163 7.44152 8.87891 6.87891C9.44152 6.3163 10.2044 6 11 6H14C14.5523 6 15 6.44772 15 7C15 7.55228 14.5523 8 14 8H11C10.7348 8 10.4805 8.10543 10.293 8.29297C10.1054 8.4805 10 8.73478 10 9V14C10 14.7411 9.72269 15.4511 9.23047 16C9.72269 16.5489 10 17.2589 10 18V23C10 23.5477 10.4523 24 11 24H14C14.5523 24 15 24.4477 15 25C15 25.5523 14.5523 26 14 26H11C9.34772 26 8 24.6523 8 23Z" fill="#F472B6"/>
<path d="M23 6C23.5523 6 24 6.44772 24 7V25C24 25.5523 23.5523 26 23 26H19C18.4477 26 18 25.5523 18 25C18 24.4477 18.4477 24 19 24H22V8H19C18.4477 8 18 7.55228 18 7C18 6.44772 18.4477 6 19 6H23Z" fill="#22D3EE"/>
</svg>
