<svg xmlns="http://www.w3.org/2000/svg" viewBox="0 0 512 512" fill="none">
  <path d="M168 172C168 123.4 207.4 84 256 84C304.6 84 344 123.4 344 172V328C344 360.1 318.1 386 286 386H260C244.5 386 232 373.5 232 358V284C232 268.5 244.5 256 260 256H292V176C292 153.9 274.1 136 252 136C229.9 136 212 153.9 212 176V256H244C259.5 256 272 268.5 272 284V358C272 373.5 259.5 386 244 386H226C193.9 386 168 360.1 168 328V172Z" fill="#0A0A0A"/>
  <rect x="196" y="256" width="48" height="112" rx="16" fill="#FFFFFF"/>
  <rect x="268" y="256" width="48" height="112" rx="16" fill="#FFFFFF"/>
</svg>
