<svg width="96" height="24" viewBox="0 0 96 24" fill="none" xmlns="http://www.w3.org/2000/svg">
<path d="M4 19V14C4 13.7348 3.89457 13.4805 3.70703 13.293C3.51949 13.1054 3.26522 13 3 13C2.44772 13 2 12.5523 2 12C2 11.4477 2.44772 11 3 11C3.26522 11 3.51949 10.8946 3.70703 10.707C3.87117 10.5429 3.97243 10.3276 3.99512 10.0986L4 10V5C4 4.20435 4.3163 3.44152 4.87891 2.87891C5.44152 2.3163 6.20435 2 7 2H10C10.5523 2 11 2.44772 11 3C11 3.55228 10.5523 4 10 4H7C6.73478 4 6.48051 4.10543 6.29297 4.29297C6.10543 4.48051 6 4.73478 6 5V10L5.98535 10.2969C5.92244 10.9297 5.65655 11.5249 5.23047 12C5.72269 12.5489 6 13.2589 6 14V19C6 19.5477 6.45228 20 7 20H10C10.5523 20 11 20.4477 11 21C11 21.5523 10.5523 22 10 22H7C5.34772 22 4 20.6523 4 19Z" fill="#F472B6"/>
<path d="M19 2L19.1025 2.00488C19.6067 2.05621 20 2.48232 20 3V21C20 21.5523 19.5523 22 19 22H15C14.4477 22 14 21.5523 14 21C14 20.4477 14.4477 20 15 20H18V4H15C14.4477 4 14 3.55228 14 3C14 2.44772 14.4477 2 15 2H19Z" fill="#22D3EE"/>
<path d="M25.232 18V6.32H29.12C29.8987 6.32 30.576 6.46933 31.152 6.768C31.7387 7.06667 32.192 7.488 32.512 8.032C32.832 8.56533 32.992 9.19467 32.992 9.92C32.992 10.6347 32.8267 11.264 32.496 11.808C32.176 12.352 31.728 12.7733 31.152 13.072C30.576 13.3707 29.8987 13.52 29.12 13.52H27.232V18H25.232ZM27.232 11.712H29.12C29.6747 11.712 30.1173 11.552 30.448 11.232C30.7893 10.9013 30.96 10.464 30.96 9.92C30.96 9.36533 30.7893 8.928 30.448 8.608C30.1173 8.288 29.6747 8.128 29.12 8.128H27.232V11.712ZM35.0978 18V9.2H36.9858V10.88H37.4818L36.8898 11.904C36.8898 10.9547 37.1031 10.24 37.5298 9.76C37.9564 9.28 38.5858 9.04 39.4178 9.04C40.3671 9.04 41.1138 9.33333 41.6578 9.92C42.2018 10.5067 42.4738 11.3173 42.4738 12.352V12.992H40.3778V12.496C40.3778 11.9307 40.2284 11.4933 39.9298 11.184C39.6418 10.8747 39.2418 10.72 38.7298 10.72C38.2071 10.72 37.8018 10.8747 37.5138 11.184C37.2364 11.4933 37.0978 11.9307 37.0978 12.496V18H35.0978ZM48.0035 18.16C47.2568 18.16 46.6062 18.016 46.0515 17.728C45.4968 17.44 45.0648 17.04 44.7555 16.528C44.4568 16.0053 44.3075 15.3973 44.3075 14.704V12.496C44.3075 11.8027 44.4568 11.2 44.7555 10.688C45.0648 10.1653 45.4968 9.76 46.0515 9.472C46.6062 9.184 47.2568 9.04 48.0035 9.04C48.7395 9.04 49.3795 9.184 49.9235 9.472C50.4782 9.76 50.9048 10.1653 51.2035 10.688C51.5128 11.2 51.6675 11.8027 51.6675 12.496V14.08H46.2435V14.704C46.2435 15.3227 46.3928 15.792 46.6915 16.112C46.9902 16.4213 47.4328 16.576 48.0195 16.576C48.4675 16.576 48.8302 16.5013 49.1075 16.352C49.3848 16.192 49.5608 15.9627 49.6355 15.664H51.6035C51.4542 16.4213 51.0488 17.0293 50.3875 17.488C49.7368 17.936 48.9422 18.16 48.0035 18.16ZM49.7315 12.96V12.48C49.7315 11.872 49.5875 11.408 49.2995 11.088C49.0115 10.7573 48.5795 10.592 48.0035 10.592C47.4275 10.592 46.9902 10.7573 46.6915 11.088C46.3928 11.4187 46.2435 11.888 46.2435 12.496V12.832L49.8755 12.8L49.7315 12.96ZM53.6133 18V9.2H55.2453V10.384H55.5813L55.3093 10.672C55.3093 10.1813 55.4479 9.78667 55.7253 9.488C56.0026 9.18933 56.3599 9.04 56.7973 9.04C57.2666 9.04 57.6293 9.232 57.8853 9.616C58.1519 10 58.2853 10.5173 58.2853 11.168L57.9333 10.384H58.4773L58.2693 10.672C58.2693 10.1813 58.4079 9.78667 58.6853 9.488C58.9626 9.18933 59.3306 9.04 59.7893 9.04C60.3333 9.04 60.7653 9.24267 61.0853 9.648C61.4053 10.0533 61.5653 10.6027 61.5653 11.296V18H59.8053V11.376C59.8053 11.088 59.7413 10.864 59.6133 10.704C59.4853 10.5333 59.2986 10.448 59.0533 10.448C58.8186 10.448 58.6319 10.528 58.4933 10.688C58.3653 10.848 58.3013 11.0773 58.3013 11.376V18H56.8613V11.376C56.8613 11.0773 56.7973 10.848 56.6693 10.688C56.5413 10.528 56.3546 10.448 56.1093 10.448C55.8639 10.448 55.6773 10.528 55.5493 10.688C55.4319 10.848 55.3733 11.0773 55.3733 11.376V18H53.6133ZM63.591 18V16.176H66.663V11.008H63.991V9.2H68.583V16.176H71.303V18H63.591ZM67.463 7.728C67.0577 7.728 66.7377 7.62667 66.503 7.424C66.2683 7.21067 66.151 6.928 66.151 6.576C66.151 6.224 66.2683 5.94667 66.503 5.744C66.7377 5.53067 67.0577 5.424 67.463 5.424C67.8683 5.424 68.1883 5.53067 68.423 5.744C68.6577 5.94667 68.775 6.224 68.775 6.576C68.775 6.928 68.6577 7.21067 68.423 7.424C68.1883 7.62667 67.8683 7.728 67.463 7.728ZM76.7688 18.16C75.6488 18.16 74.7688 17.8507 74.1288 17.232C73.4888 16.6027 73.1688 15.7493 73.1688 14.672V9.2H75.1688V14.656C75.1688 15.2213 75.3074 15.6587 75.5848 15.968C75.8621 16.2667 76.2568 16.416 76.7688 16.416C77.2701 16.416 77.6594 16.2667 77.9368 15.968C78.2248 15.6587 78.3688 15.2213 78.3688 14.656V9.2H80.3688V14.672C80.3688 15.7493 80.0434 16.6027 79.3928 17.232C78.7421 17.8507 77.8674 18.16 76.7688 18.16ZM82.3945 18V9.2H84.0265V10.384H84.3625L84.0905 10.672C84.0905 10.1813 84.2292 9.78667 84.5065 9.488C84.7838 9.18933 85.1412 9.04 85.5785 9.04C86.0478 9.04 86.4105 9.232 86.6665 9.616C86.9332 10 87.0665 10.5173 87.0665 11.168L86.7145 10.384H87.2585L87.0505 10.672C87.0505 10.1813 87.1892 9.78667 87.4665 9.488C87.7438 9.18933 88.1118 9.04 88.5705 9.04C89.1145 9.04 89.5465 9.24267 89.8665 9.648C90.1865 10.0533 90.3465 10.6027 90.3465 11.296V18H88.5865V11.376C88.5865 11.088 88.5225 10.864 88.3945 10.704C88.2665 10.5333 88.0798 10.448 87.8345 10.448C87.5998 10.448 87.4132 10.528 87.2745 10.688C87.1465 10.848 87.0825 11.0773 87.0825 11.376V18H85.6425V11.376C85.6425 11.0773 85.5785 10.848 85.4505 10.688C85.3225 10.528 85.1358 10.448 84.8905 10.448C84.6452 10.448 84.4585 10.528 84.3305 10.688C84.2132 10.848 84.1545 11.0773 84.1545 11.376V18H82.3945Z" fill="#09090B"/>
</svg>
